<svg xmlns="http://www.w3.org/2000/svg" width="130" height="32" viewBox="0 0 130 32" fill="none">
<path fill-rule="evenodd" clip-rule="evenodd" d="M16.8278 20.8467V14.54C16.8278 13.2154 18.5136 14.0885 18.5136 15.8194V20.8467C18.5136 21.2982 18.1373 21.3885 17.6707 21.3885C17.2041 21.3885 16.8278 21.2982 16.8278 20.8467ZM15.9096 6.83351C17.5352 5.85515 19.4167 5.32834 21.3283 5.32834C27.1683 5.32834 31.9699 10.0997 31.9699 15.985C31.9699 21.8702 27.1834 26.6567 21.3433 26.6567C15.5033 26.6567 10.7168 21.8702 10.7168 15.985C10.7168 13.1552 12.1467 10.8975 14.5098 10.0395C15.7441 9.58798 17.2493 9.52777 18.4082 10.0847C19.5221 10.6266 20.1843 11.5146 20.6961 12.2521C22.1561 14.3744 24.1429 17.9116 24.1429 17.9116V11.1534C24.1429 10.7018 24.5192 10.6115 24.9708 10.6115C25.4223 10.6115 25.7986 10.7018 25.7986 11.1534V20.8316C25.7986 21.4036 24.5794 21.5692 24.2634 21.2531C23.8967 20.8936 22.9739 19.3325 21.9524 17.6045C20.835 15.7143 19.5996 13.6243 18.8447 12.6886C17.8062 11.3942 16.4214 10.9426 14.9463 11.3942C13.1853 11.9361 11.9962 13.7874 11.9962 16C11.9962 21.238 16.1655 25.4826 21.3283 25.4826C26.491 25.4826 30.6604 21.238 30.6604 16C30.6604 10.762 26.5061 6.51743 21.3283 6.51743C19.6274 6.51743 17.9717 6.98403 16.5268 7.85703C16.2408 8.0226 16.0301 7.84198 15.8645 7.556C15.6989 7.27001 15.6237 6.99908 15.9096 6.83351ZM40.0828 11.7404L44.1166 17.4149V11.7404H45.682V20.2597H44.3274L39.9774 14.2541V20.2597H38.397V11.7404H40.0828ZM52.1242 18.8147V16.4365C52.1242 14.8711 51.1157 14.1336 49.5654 14.1336C47.9849 14.1336 47.0517 14.9915 46.841 16.2107L48.3161 16.3462C48.4515 15.7592 48.8128 15.3528 49.4901 15.3528C50.1825 15.3528 50.5287 15.7592 50.5287 16.4214V16.5569L48.888 16.888C47.5334 17.159 46.6152 17.6256 46.6152 18.7695C46.6152 19.793 47.3678 20.4252 48.6171 20.4252C49.4901 20.4252 50.3029 20.064 50.6491 19.3716C50.7996 20.0188 51.2361 20.4102 51.9134 20.4102C52.4553 20.4102 52.7864 20.2295 53.0423 20.0339V19.1609C52.8617 19.2361 52.6961 19.2813 52.5456 19.2813C52.2747 19.2813 52.1242 19.1308 52.1242 18.8147ZM50.5287 17.6858C50.5287 18.6491 49.8815 19.2963 49.0235 19.2963C48.5118 19.2963 48.1957 19.0555 48.1957 18.6491C48.1957 18.047 48.6924 17.9266 49.3998 17.7761L50.5287 17.5353V17.6858ZM55.6011 15.4281V18.3782C55.6011 18.905 55.8269 19.1308 56.3236 19.1308C56.6397 19.1308 56.9859 19.0104 57.332 18.8448V19.9135C56.8955 20.2296 56.4139 20.4253 55.6764 20.4253C54.7582 20.4253 53.9906 20.0189 53.9906 18.7395V15.4281H53.1326V14.4648L53.539 14.4046C54.111 14.3142 54.2765 14.0132 54.412 13.4563L54.6077 12.6435H55.6011V14.2992H57.2267V15.4281H55.6011ZM62.3292 17.4901C62.3292 18.4986 61.8476 19.1608 61.0498 19.1608C60.2521 19.1608 59.9059 18.619 59.9059 17.7159V14.2991H58.2803V18.032C58.2803 19.3565 58.8222 20.4252 60.4026 20.4252C61.3057 20.4252 62.0131 19.9736 62.3292 19.2813V20.2596H63.9548V14.2991H62.3292V17.4901ZM76.3876 11.7404H78.0132V20.2747H76.3876V11.7404ZM102.939 11.7404H101.313V20.2747H102.939V11.7404ZM66.92 15.428C67.1458 14.7507 67.7629 14.1336 68.5908 14.1336C68.952 14.1336 69.253 14.2239 69.4337 14.3744L68.7563 15.6689C68.6359 15.6387 68.5005 15.6237 68.3349 15.6237C67.492 15.6237 66.92 16.2258 66.92 17.3095V20.2747H65.2944V14.2991H66.92V15.428ZM74.777 18.8147V16.4365C74.777 14.8711 73.7686 14.1336 72.2182 14.1336C70.6378 14.1336 69.7046 14.9915 69.4939 16.2107L70.9689 16.3462C71.1044 15.7592 71.4656 15.3528 72.143 15.3528C72.8354 15.3528 73.1815 15.7592 73.1815 16.4214V16.5569L71.5409 16.888C70.1862 17.159 69.2681 17.6256 69.2681 18.7695C69.2681 19.793 70.0207 20.4252 71.27 20.4252C72.143 20.4252 72.9558 20.064 73.302 19.3716C73.4525 20.0188 73.889 20.4102 74.5663 20.4102C74.9727 20.4102 75.2587 20.3048 75.4845 20.1693V19.2361C75.3791 19.2662 75.2888 19.2813 75.1834 19.2813C74.9426 19.2813 74.777 19.1308 74.777 18.8147ZM73.1966 17.6858C73.1966 18.6491 72.5494 19.2963 71.6914 19.2963C71.1797 19.2963 70.8636 19.0555 70.8636 18.6491C70.8636 18.047 71.3603 17.9266 72.0677 17.7761L73.1966 17.5353V17.6858ZM91.4694 18.032L92.9595 14.2991H94.54L91.1232 22.4873H89.5277L90.6265 19.8683L88.1731 14.2991H89.8137L91.3942 18.032H91.4694ZM85.2832 18.905C83.763 18.905 82.7695 17.8062 82.7695 16C82.7695 14.1938 83.778 13.0649 85.2832 13.0649C86.096 13.0649 86.698 13.3509 87.0894 13.8025L88.2183 12.6435C87.5409 11.9662 86.5475 11.5598 85.2832 11.5598C82.8598 11.5598 81.0085 13.366 81.0085 15.985C81.0085 18.619 82.8598 20.4102 85.2832 20.4102C86.8486 20.4102 87.9774 19.8081 88.6397 18.8298L87.3302 17.8514C86.9389 18.4986 86.2766 18.905 85.2832 18.905ZM99.0555 16.6773C98.905 15.8796 98.4083 15.3829 97.5654 15.3829C96.6773 15.3829 96.0451 16.0451 96.0451 17.2944C96.0451 18.5287 96.6773 19.191 97.5654 19.191C98.4083 19.191 98.905 18.6792 99.0555 17.8664L100.425 18.032C100.23 19.3716 99.2662 20.4403 97.5654 20.4403C95.714 20.4403 94.4045 19.191 94.4045 17.2944C94.4045 15.3979 95.729 14.1336 97.5654 14.1336C99.2662 14.1336 100.23 15.2022 100.425 16.5569L99.0555 16.6773ZM106.928 14.1336C105.136 14.1336 103.797 15.4882 103.797 17.3697C103.797 19.2512 105.121 20.4252 106.973 20.4252C108.433 20.4252 109.426 19.7178 109.787 18.5136L108.478 18.333C108.237 18.92 107.77 19.206 107.033 19.206C106.16 19.206 105.468 18.5889 105.407 17.7008H109.893V17.1138C109.893 15.4882 108.884 14.1336 106.928 14.1336ZM105.437 16.6773C105.588 15.9398 106.04 15.3227 106.928 15.3227C107.831 15.3227 108.252 15.9849 108.312 16.6773H105.437ZM112.918 16.4817L114.062 16.6774C115.326 16.8731 116.064 17.4149 116.064 18.5287C116.064 19.7479 115.01 20.4253 113.46 20.4253C111.97 20.4253 110.826 19.8081 110.63 18.4685L112.045 18.3782C112.181 18.9954 112.707 19.3114 113.475 19.3114C114.077 19.3114 114.559 19.1158 114.559 18.6793C114.559 18.2729 114.288 18.0922 113.686 18.0019L112.738 17.8364C111.473 17.6256 110.766 17.159 110.766 16.0452C110.766 14.9013 111.729 14.1186 113.249 14.1186C114.83 14.1186 115.793 14.7959 115.974 16.0151L114.634 16.1054C114.484 15.5184 114.032 15.2324 113.234 15.2324C112.647 15.2324 112.271 15.4883 112.271 15.8947C112.271 16.2258 112.482 16.4215 112.918 16.4817Z" fill="#320E40"/>
</svg>